HIERARCHY
ROOT pelvis
{
  OFFSET 0 100 0
  CHANNELS 6 Xposition Yposition Zposition Zrotation Xrotation Yrotation
  JOINT pelvis_right_femur
  {
    OFFSET -10.78128 -3.44521 -0.5502486
    CHANNELS 3 Zrotation Xrotation Yrotation
    JOINT right_femur_tibia
    {
      OFFSET -0.8047443 -44.0398 -0.1307829
      CHANNELS 3 Zrotation Xrotation Yrotation
      JOINT right_tibia_foot
      {
        OFFSET 3.006224 -47.83518 -5
        CHANNELS 3 Zrotation Xrotation Yrotation
        End Site
        {
          OFFSET 0 -5 15
        }
      }
    }
  }
  JOINT pelvis_left_femur
  {
    OFFSET 10.78128 -3.44521 -0.5502486
    CHANNELS 3 Zrotation Xrotation Yrotation
    JOINT left_femur_tibia
    {
      OFFSET 0.8047443 -44.0398 -0.1307829
      CHANNELS 3 Zrotation Xrotation Yrotation
      JOINT left_tibia_foot
      {
        OFFSET -4.370144 -48.10324 -4.275266
        CHANNELS 3 Zrotation Xrotation Yrotation
        End Site
        {
          OFFSET 0 -5 15
        }
      }
    }
  }
  JOINT pelvis_spine1
  {
    OFFSET 0 6.468898 -3.129235
    CHANNELS 3 Zrotation Xrotation Yrotation
    JOINT spine1
    {
      OFFSET 0 23.15396 4.99043
      CHANNELS 3 Zrotation Xrotation Yrotation
      JOINT spine2
      {
        OFFSET 0 20.79997 -5.064912
        CHANNELS 3 Zrotation Xrotation Yrotation
        JOINT neck
        {
          OFFSET 0 14.38658 9.616178
          CHANNELS 3 Zrotation Xrotation Yrotation
          End Site
          {
            OFFSET 0 20 0
          }
        }
      }
      JOINT right_manubrium
      {
        OFFSET -5.722621 16.35077 3.967754
        CHANNELS 3 Zrotation Xrotation Yrotation
        JOINT right_clavicle
        {
          OFFSET -13.16364 1.694482 -4.693211
          CHANNELS 3 Zrotation Xrotation Yrotation
          JOINT right_humerus
          {
            OFFSET -28.5034 -0.3100689 -2.792744
            CHANNELS 3 Zrotation Xrotation Yrotation
            JOINT right_radius
            {
              OFFSET -25.15693 0.02248979 -1.271978
              CHANNELS 3 Zrotation Xrotation Yrotation
              End Site
              {
                OFFSET -15 0 0
              }
            }
          }
        }
      }
      JOINT left_manubrium
      {
        OFFSET 5.722621 16.35077 3.967754
        CHANNELS 3 Zrotation Xrotation Yrotation
        JOINT left_clavicle
        {
          OFFSET 13.16364 1.694482 -4.693211
          CHANNELS 3 Zrotation Xrotation Yrotation
          JOINT left_humerus
          {
            OFFSET 29.39168 -1.063119 -2.237045
            CHANNELS 3 Zrotation Xrotation Yrotation
            JOINT left_radius
            {
              OFFSET 24.59957 -0.9528479 0.9047498
              CHANNELS 3 Zrotation Xrotation Yrotation
              End Site
              {
                OFFSET 15 -0 -0
              }
            }
          }
        }
      }
    }
  }
}
MOTION
Frames: 9
Frame Time: 0.0416666666667
-542.18 121.8299 484.0632 -4.397876 11.24117 -150.1217 8.230822 13.55235 1.301304 -0 12.90623 -0 -6.764423 -3.110926 -1.577412 4.875935 -14.36322 -2.119686 -0 13.55121 -0 4.903691 -0.9635192 16.45201 3.458973 -4.948247 8.096025 -0.3783059 20.99549 -6.098267 1.787029 17.62965 0.9338486 -0.9009675 -20.62739 4.433647 -4.503116 -35.72132 14.10568 93.92489 7.194167 -11.19207 -0 0 30.37978 -29.89456 18.71838 19.05317 1.902718 -24.37404 -10.4653 -94.13559 5.647095 38.70466 0 0 -10.90444 8.818714 16.05074 2.48829
-546.1047 121.7932 479.3385 -4.176117 11.32449 -151.2551 8.230822 13.55235 1.301304 -0 12.90623 -0 -6.764423 -3.110926 -1.577412 4.875935 -14.36322 -2.119686 -0 13.55121 -0 4.903691 -0.9635192 16.45201 3.458973 -4.948247 8.096025 -0.3783059 20.99549 -6.098267 1.787029 17.62965 0.9338486 -0.9009675 -20.62739 4.433647 -4.503116 -35.72132 14.10568 93.92489 7.194167 -11.19207 -0 0 30.37978 -29.89456 18.71838 19.05317 1.902718 -24.37404 -10.4653 -94.13559 5.647095 38.70466 0 0 -10.90444 8.818714 16.05074 2.48829
-549.9368 121.7565 474.5384 -3.952657 11.40349 -152.3892 8.230822 13.55235 1.301304 -0 12.90623 -0 -6.764423 -3.110926 -1.577412 4.875935 -14.36322 -2.119686 -0 13.55121 -0 4.903691 -0.9635192 16.45201 3.458973 -4.948247 8.096025 -0.3783059 20.99549 -6.098267 1.787029 17.62965 0.9338486 -0.9009675 -20.62739 4.433647 -4.503116 -35.72132 14.10568 93.92489 7.194167 -11.19207 -0 0 30.37978 -29.89456 18.71838 19.05317 1.902718 -24.37404 -10.4653 -94.13559 5.647095 38.70466 0 0 -10.90444 8.818714 16.05074 2.48829
-553.6749 121.7197 469.6647 -3.727584 11.47814 -153.5238 8.230822 13.55235 1.301304 -0 12.90623 -0 -6.764423 -3.110926 -1.577412 4.875935 -14.36322 -2.119686 -0 13.55121 -0 4.903691 -0.9635192 16.45201 3.458973 -4.948247 8.096025 -0.3783059 20.99549 -6.098267 1.787029 17.62965 0.9338486 -0.9009675 -20.62739 4.433647 -4.503116 -35.72132 14.10568 93.92489 7.194167 -11.19207 -0 0 30.37978 -29.89456 18.71838 19.05317 1.902718 -24.37404 -10.4653 -94.13559 5.647095 38.70466 0 0 -10.90444 8.818714 16.05074 2.48829
-557.3174 121.683 464.7191 -3.500988 11.54841 -154.6591 8.230822 13.55235 1.301304 -0 12.90623 -0 -6.764423 -3.110926 -1.577412 4.875935 -14.36322 -2.119686 -0 13.55121 -0 4.903691 -0.9635192 16.45201 3.458973 -4.948247 8.096025 -0.3783059 20.99549 -6.098267 1.787029 17.62965 0.9338486 -0.9009675 -20.62739 4.433647 -4.503116 -35.72132 14.10568 93.92489 7.194167 -11.19207 -0 0 30.37978 -29.89456 18.71838 19.05317 1.902718 -24.37404 -10.4653 -94.13559 5.647095 38.70466 0 0 -10.90444 8.818714 16.05074 2.48829
-560.863 121.6463 459.7036 -3.272961 11.61426 -155.7949 8.230822 13.55235 1.301304 -0 12.90623 -0 -6.764423 -3.110926 -1.577412 4.875935 -14.36322 -2.119686 -0 13.55121 -0 4.903691 -0.9635192 16.45201 3.458973 -4.948247 8.096025 -0.3783059 20.99549 -6.098267 1.787029 17.62965 0.9338486 -0.9009675 -20.62739 4.433647 -4.503116 -35.72132 14.10568 93.92489 7.194167 -11.19207 -0 0 30.37978 -29.89456 18.71838 19.05317 1.902718 -24.37404 -10.4653 -94.13559 5.647095 38.70466 0 0 -10.90444 8.818714 16.05074 2.48829
-564.3103 121.6096 454.6201 -3.043593 11.67568 -156.9312 8.230822 13.55235 1.301304 -0 12.90623 -0 -6.764423 -3.110926 -1.577412 4.875935 -14.36322 -2.119686 -0 13.55121 -0 4.903691 -0.9635192 16.45201 3.458973 -4.948247 8.096025 -0.3783059 20.99549 -6.098267 1.787029 17.62965 0.9338486 -0.9009675 -20.62739 4.433647 -4.503116 -35.72132 14.10568 93.92489 7.194167 -11.19207 -0 0 30.37978 -29.89456 18.71838 19.05317 1.902718 -24.37404 -10.4653 -94.13559 5.647095 38.70466 0 0 -10.90444 8.818714 16.05074 2.48829
-567.6582 121.5729 449.4706 -2.812978 11.73262 -158.068 8.230822 13.55235 1.301304 -0 12.90623 -0 -6.764423 -3.110926 -1.577412 4.875935 -14.36322 -2.119686 -0 13.55121 -0 4.903691 -0.9635192 16.45201 3.458973 -4.948247 8.096025 -0.3783059 20.99549 -6.098267 1.787029 17.62965 0.9338486 -0.9009675 -20.62739 4.433647 -4.503116 -35.72132 14.10568 93.92489 7.194167 -11.19207 -0 0 30.37978 -29.89456 18.71838 19.05317 1.902718 -24.37404 -10.4653 -94.13559 5.647095 38.70466 0 0 -10.90444 8.818714 16.05074 2.48829
-570.9052 121.5362 444.2568 -2.581208 11.78507 -159.2052 8.230822 13.55235 1.301304 -0 12.90623 -0 -6.764423 -3.110926 -1.577412 4.875935 -14.36322 -2.119686 -0 13.55121 -0 4.903691 -0.9635192 16.45201 3.458973 -4.948247 8.096025 -0.3783059 20.99549 -6.098267 1.787029 17.62965 0.9338486 -0.9009675 -20.62739 4.433647 -4.503116 -35.72132 14.10568 93.92489 7.194167 -11.19207 -0 0 30.37978 -29.89456 18.71838 19.05317 1.902718 -24.37404 -10.4653 -94.13559 5.647095 38.70466 0 0 -10.90444 8.818714 16.05074 2.48829
